<?xml version="1.0" encoding="UTF-8"?>
<svg id="Layer_2" data-name="Layer 2" xmlns="http://www.w3.org/2000/svg" viewBox="0 0 470.54 440.52">
  <defs>
    <style>
      .cls-1 {
        fill: #1d1d1b;
        stroke-width: 0px;
      }
    </style>
  </defs>
  <g id="_Ñëîé_1" data-name="Ñëîé 1">
    <g>
      <path class="cls-1" d="m459.71,258.64c-14.5-25.88-41.28-42.01-75.4-45.45-23.76-2.38-47.99-.34-72.03,6.11-1.81.48-3.65,1.06-5.49,1.61-3.87-10.94-10.09-21.22-18.82-29.96-29.75-29.75-77.16-31.25-108.76-4.6-1.37-1.29-2.74-2.61-4.1-3.97-16.45-16.45-29.42-35.08-38.57-55.38-12.25-27.19-11.91-54.09.96-75.73,12.87-21.65,36.35-35.27,64.42-37.37,66.81-4.96,115.31,24.09,123.57,55.08,4.72,17.7-4.91,33.3-27.1,43.94-14.92,7.14-26.97,16.62-35.84,28.2-2.24,2.92-1.68,7.11,1.24,9.35,2.92,2.24,7.11,1.69,9.35-1.24,7.57-9.88,18-18.05,31.01-24.28,27.8-13.31,40.59-35.51,34.23-59.39C328.71,29.28,274.64-4.95,200.92.59c-31.99,2.39-59.98,18.78-74.89,43.85-15.16,25.49-15.75,56.76-1.66,88.03,9.81,21.77,23.71,41.74,41.31,59.33,1.35,1.34,2.7,2.65,4.04,3.93-12.4,14.54-19.18,32.81-19.18,52.14,0,21.5,8.37,41.72,23.58,56.92,8.48,8.48,18.52,14.83,29.48,18.8-.43,1.83-.83,3.68-1.31,5.47-6.02,22.47-15.67,43.03-28.68,61.1-17.42,24.2-40.78,37.25-66.06,37.03-25.19-.32-48.73-13.85-64.58-37.11-37.73-55.38-36.8-111.9-14.09-134.56,12.98-12.94,31.3-12.4,51.6,1.5,13.65,9.36,27.9,15.05,42.36,16.94,3.64.49,7-2.09,7.47-5.75.48-3.65-2.1-7-5.75-7.47-12.35-1.61-24.65-6.56-36.55-14.72-25.43-17.42-51.06-17.39-68.55.06-26.56,26.49-29.15,90.41,12.49,151.5,18.06,26.51,46.26,42.56,75.43,42.93.36,0,.73,0,1.09,0,29.24,0,56.18-15.09,75.96-42.58,13.95-19.38,24.29-41.4,30.73-65.43.48-1.79.87-3.64,1.31-5.47,4.76.86,9.62,1.33,14.56,1.33,21.5,0,41.72-8.37,56.92-23.58,19.28-19.28,26.67-45.99,22.26-71,1.84-.55,3.69-1.13,5.5-1.61,22.47-6.02,45.1-7.95,67.25-5.72,29.67,2.99,52.79,16.73,65.1,38.7,12.31,21.98,12.37,49.12.16,74.48-29.09,60.37-78.51,87.82-109.49,79.48-17.69-4.76-26.39-20.9-24.5-45.44,1.27-16.51-.92-31.7-6.52-45.17-1.41-3.4-5.31-5.01-8.71-3.6-3.4,1.41-5.01,5.32-3.6,8.71,4.78,11.5,6.64,24.63,5.53,39.02-2.37,30.73,10.46,52.92,34.32,59.34,4.5,1.21,9.3,1.81,14.34,1.81,35.56,0,82.51-30.04,110.62-88.38,13.92-28.9,13.72-61.34-.53-86.78Zm-181.17,36.72c-12.69,12.69-29.55,19.67-47.5,19.67s-34.81-6.99-47.49-19.67c-12.69-12.69-19.67-29.55-19.67-47.49s6.99-34.81,19.67-47.5,30.29-19.64,47.49-19.64,34.4,6.55,47.5,19.64c26.18,26.19,26.19,68.8,0,94.99Z"/>
      <path class="cls-1" d="m227.12,205.34c-21.29,0-38.6,17.31-38.6,38.6,0,3.68,2.99,6.67,6.67,6.67s6.67-2.99,6.67-6.67c0-13.93,11.33-25.27,25.27-25.27,3.68,0,6.67-2.99,6.67-6.67s-2.99-6.67-6.67-6.67Z"/>
    </g>
  </g>
</svg>