<?xml version="1.0" encoding="UTF-8"?>
<svg id="Layer_2" data-name="Layer 2" xmlns="http://www.w3.org/2000/svg" viewBox="0 0 532.14 417.72">
  <defs>
    <style>
      .cls-1 {
        fill: #1d1d1b;
        stroke-width: 0px;
      }
    </style>
  </defs>
  <g id="_Ñëîé_1" data-name="Ñëîé 1">
    <g>
      <path class="cls-1" d="m444.76,226.95c0-3.68-2.98-6.67-6.67-6.67H94.05c-3.68,0-6.67,2.98-6.67,6.67s2.99,6.67,6.67,6.67h344.04c3.68,0,6.67-2.99,6.67-6.67Z"/>
      <path class="cls-1" d="m62.19,233.62c3.68,0,6.67-2.99,6.67-6.67s-2.99-6.67-6.67-6.67c-26.94,0-48.85-21.92-48.85-48.85V30.19c0-9.3,7.56-16.86,16.86-16.86h471.75c9.3,0,16.86,7.56,16.86,16.86v141.24c0,26.94-21.92,48.85-48.85,48.85-3.68,0-6.67,2.98-6.67,6.67s2.99,6.67,6.67,6.67c34.29,0,62.19-27.9,62.19-62.19V30.19c0-16.65-13.54-30.19-30.19-30.19H30.19C13.55,0,0,13.54,0,30.19v141.24c0,34.29,27.9,62.19,62.19,62.19Z"/>
      <path class="cls-1" d="m475.91,52.51c3.68,0,6.67-2.98,6.67-6.67s-2.98-6.67-6.67-6.67h-28.02c-3.68,0-6.67,2.99-6.67,6.67s2.98,6.67,6.67,6.67h28.02Z"/>
      <path class="cls-1" d="m409.01,52.51c3.68,0,6.67-2.98,6.67-6.67s-2.98-6.67-6.67-6.67h-28.02c-3.68,0-6.67,2.99-6.67,6.67s2.98,6.67,6.67,6.67h28.02Z"/>
      <path class="cls-1" d="m482.58,184.77c0-3.68-2.98-6.67-6.67-6.67H56.23c-3.68,0-6.67,2.98-6.67,6.67s2.99,6.67,6.67,6.67h419.68c3.68,0,6.67-2.99,6.67-6.67Z"/>
      <path class="cls-1" d="m133.65,416.77c1.07.64,2.26.95,3.42.95,2.27,0,4.47-1.16,5.72-3.24,1.89-3.16.87-7.25-2.29-9.15-30.79-18.48-22.4-33.56-9.7-56.39,12.14-21.83,27.25-48.99-8.28-76.93-2.9-2.28-7.09-1.77-9.36,1.12-2.28,2.9-1.77,7.09,1.12,9.36,26.6,20.91,17.01,38.15,4.87,59.97-12.19,21.92-27.36,49.19,14.5,74.31Z"/>
      <path class="cls-1" d="m227.46,416.77c1.07.64,2.26.95,3.42.95,2.27,0,4.47-1.16,5.72-3.24,1.89-3.16.87-7.25-2.29-9.15-30.79-18.48-22.4-33.56-9.7-56.39,12.14-21.83,27.25-48.99-8.28-76.93-2.9-2.28-7.09-1.77-9.36,1.12-2.28,2.9-1.77,7.09,1.12,9.36,26.6,20.91,17.01,38.15,4.87,59.97-12.19,21.92-27.36,49.19,14.5,74.31Z"/>
      <path class="cls-1" d="m321.28,416.77c1.07.64,2.26.95,3.42.95,2.27,0,4.47-1.16,5.72-3.24,1.89-3.16.87-7.25-2.29-9.15-30.79-18.48-22.4-33.56-9.7-56.39,12.14-21.83,27.25-48.99-8.28-76.93-2.9-2.28-7.09-1.77-9.36,1.12-2.28,2.9-1.77,7.09,1.12,9.36,26.6,20.91,17.01,38.15,4.87,59.97-12.19,21.92-27.36,49.19,14.5,74.31Z"/>
      <path class="cls-1" d="m415.09,416.77c1.07.64,2.26.95,3.42.95,2.27,0,4.47-1.16,5.72-3.24,1.89-3.16.87-7.25-2.29-9.15-30.79-18.48-22.4-33.56-9.7-56.39,12.14-21.83,27.25-48.99-8.28-76.93-2.9-2.28-7.09-1.77-9.36,1.12-2.28,2.9-1.77,7.09,1.12,9.36,26.6,20.91,17.01,38.15,4.87,59.97-12.19,21.92-27.36,49.19,14.5,74.31Z"/>
    </g>
  </g>
</svg>